<svg width="199" height="16" viewBox="0 0 199 16" fill="none" xmlns="http://www.w3.org/2000/svg">
<path d="M0.74 11.58C0.74 13.62 1.68 15.12 3.8 15.12C5.96 15.12 6.9 13.62 6.9 11.58V4.42C6.9 2.38 5.96 0.879999 3.8 0.879999C1.68 0.879999 0.74 2.38 0.74 4.42V11.58ZM1.66 4.36C1.66 2.84 2.26 1.72 3.8 1.72C5.36 1.72 5.98 2.84 5.98 4.36V11.64C5.98 13.16 5.36 14.28 3.8 14.28C2.26 14.28 1.66 13.16 1.66 11.64V4.36ZM12.4172 0.999999V15H13.3372V8.74H14.7972C16.3972 8.74 17.4172 9.26 17.4172 11.12V13.32C17.4172 14.08 17.4772 14.58 17.7172 15H18.6772C18.3772 14.54 18.3372 13.9 18.3372 13.32V11.14C18.3372 9.62 17.7572 8.6 16.3172 8.28C17.6972 7.96 18.3372 7.02 18.3372 5.38V4.16C18.3372 2.18 17.4772 0.999999 15.3372 0.999999H12.4172ZM13.3372 7.9V1.84H15.3172C16.8372 1.84 17.4172 2.74 17.4172 4.24V5.56C17.4172 7.44 16.4572 7.9 14.8172 7.9H13.3372ZM24.132 0.999999V15H25.052V0.999999H24.132ZM33.6116 0.879999C31.4716 0.879999 30.5916 2.4 30.5916 4.42V11.58C30.5916 13.6 31.4716 15.12 33.6116 15.12C35.7516 15.12 36.6316 13.6 36.6316 11.58V7.78H33.8916V8.62H35.7516V11.64C35.7516 13.14 35.1716 14.26 33.6316 14.26C32.0916 14.26 31.5116 13.14 31.5116 11.64V4.36C31.5116 2.86 32.0916 1.72 33.6316 1.72C35.1716 1.72 35.7516 2.86 35.7516 4.36V5.46H36.6316V4.42C36.6316 2.4 35.7516 0.879999 33.6116 0.879999ZM42.1711 0.999999V15H43.0911V0.999999H42.1711ZM49.5306 2.52L53.9106 15H54.9306V0.999999H54.0906V12.82L49.8906 0.999999H48.6906V15H49.5306V2.52ZM66.2031 11.9L66.9031 15H67.8231L64.7031 0.979999H63.3631L60.3031 15H61.1431L61.8431 11.9H66.2031ZM64.0031 2.04L66.0631 11.1H61.9831L64.0031 2.04ZM78.5341 15V14.16H74.1341V0.999999H73.2141V15H78.5341ZM91.0188 0.999999V15H94.0988C96.2588 15 97.1988 13.58 97.1988 11.52V4.48C97.1988 2.42 96.2588 0.999999 94.0988 0.999999H91.0188ZM91.9388 14.16V1.84H94.0788C95.6188 1.84 96.2788 2.9 96.2788 4.44V11.56C96.2788 13.1 95.6388 14.16 94.0788 14.16H91.9388ZM103.634 7.48V1.84H108.234V0.999999H102.714V15H108.234V14.16H103.634V8.32H107.454V7.48H103.634ZM120.831 15H126.651V13H123.031V0.999999H120.831V15ZM131.609 15H133.809V0.999999H131.609V15ZM138.777 3H141.077V15H143.277V3H145.577V0.999999H138.777V3ZM152.746 3H156.546V0.999999H150.546V15H156.546V13H152.746V8.9H155.766V6.9H152.746V3ZM164.109 3H167.729V0.999999H161.909V15H164.109V9.22H166.949V7.22H164.109V3ZM172.784 15H178.604V13H174.984V0.999999H172.784V15ZM183.562 15H185.762V0.999999H183.562V15ZM196.67 0.999999L194.97 6.16L193.31 0.999999H191.03L193.33 7.8L190.87 15H192.93L194.75 9.46L196.55 15H198.87L196.41 7.8L198.71 0.999999H196.67Z" fill="white"/>
</svg>
